<svg width="160" height="56" viewBox="0 0 160 56" fill="none" xmlns="http://www.w3.org/2000/svg">
<path d="M50.8787 27.0411C44.6653 27.0411 41.8991 34.2655 41.814 34.4907C41.6143 35.1064 40.2455 39.4763 40.2455 42.9703C40.2455 49.5738 34.7683 53.3947 28.1236 53.3947C21.4239 53.3947 15.9961 49.5161 15.9961 42.8192C15.9961 42.8192 15.9961 39.1192 16.4466 35.8339C15.378 34.6252 15.2214 32.6888 15.2214 32.6888C15.2214 32.6888 14.7713 32.7766 14.3593 33.1197C14.3085 33.1622 14.2305 33.1213 14.2383 33.0554C14.36 32.022 15.4065 29.8291 17.4795 29.5133C17.8421 28.0465 18.5287 26.4945 18.6853 26.2007C20.7866 22.2836 24.9179 19.6219 29.6729 19.6219C31.4171 19.6219 33.0762 19.979 34.5843 20.6272C38.776 20.6272 40.8004 18.4023 40.8004 18.4023C41.7415 18.4023 42.8759 20.8648 42.3503 21.7823C42.3375 21.8048 42.366 21.831 42.3879 21.817C44.134 20.7046 45.1184 17.9601 45.1184 17.9601C47.1126 18.9572 48.1593 23.4373 47.0879 24.5086C50.5299 25.0386 51.4556 27.0411 50.8787 27.0411Z" fill="#FFFCEE"/>
<path d="M27.8232 53.3893C21.2621 53.2758 15.9956 49.4176 15.9956 42.8203C15.9956 42.8203 15.9406 41.8733 16.0955 39.645C22.9559 38.5668 19.5838 48.399 27.8232 53.3893Z" fill="#EAE6DA"/>
<path d="M51.0383 26.8654C51.0383 26.9752 50.9833 27.0411 50.8791 27.0411C50.7802 27.0411 50.6841 27.0438 50.5852 27.0467C45.0721 27.2307 42.6275 32.5733 42.2128 33.5898C42.2101 33.5953 42.2072 33.6007 42.2045 33.6063C41.9793 34.0705 41.853 34.3919 41.82 34.4743C42.0067 33.6503 42.1332 32.8591 42.1332 32.079C42.1332 29.5106 41.3558 27.1237 40.0236 25.1405C38.6913 23.1599 36.807 21.5805 34.5876 20.6273C34.6948 20.6273 34.8019 20.6247 34.909 20.6218C34.975 20.6218 35.0409 20.6191 35.1068 20.6136C35.1755 20.6136 35.2442 20.608 35.3129 20.6053C35.4173 20.5971 35.5161 20.5888 35.615 20.5806C35.6754 20.575 35.7359 20.5697 35.7963 20.5614C36.2028 20.5202 36.5846 20.4543 36.9417 20.3745C37.005 20.3581 37.068 20.3443 37.1286 20.3278C37.1945 20.314 37.2605 20.2975 37.3264 20.2783C37.4006 20.2592 37.4747 20.2398 37.5461 20.218C37.6614 20.1823 37.7768 20.1465 37.8867 20.1108C37.9746 20.0805 38.0624 20.0504 38.1449 20.0175C38.23 19.9872 38.3152 19.9571 38.3948 19.9213C38.4772 19.891 38.5541 19.858 38.631 19.8224C38.782 19.7564 38.9277 19.6878 39.0649 19.6192C39.238 19.5312 39.3973 19.4434 39.5456 19.3554C39.79 19.2126 39.9961 19.0725 40.1664 18.9462C40.3725 18.7923 40.5291 18.6606 40.6334 18.5644C40.6361 18.5617 40.6361 18.5617 40.6389 18.5588C40.7434 18.4709 40.8944 18.4737 40.9987 18.5615C41.5179 19.012 42.861 20.347 42.3584 21.7644C42.3557 21.7699 42.3529 21.7753 42.3502 21.7809C42.3446 21.7947 42.3502 21.8056 42.3584 21.8111C42.3667 21.8194 42.3804 21.8249 42.3914 21.8167C42.4435 21.7837 42.493 21.7508 42.5453 21.7122C42.6607 21.6298 42.776 21.5419 42.8832 21.4458C42.9244 21.4101 42.9656 21.3716 43.0068 21.3331C43.0727 21.2727 43.1387 21.2068 43.2019 21.1409C43.2322 21.1106 43.2623 21.0805 43.2899 21.0475C43.2954 21.042 43.3008 21.0366 43.3064 21.031C43.3255 21.0119 43.342 20.9925 43.3585 20.9733C43.3777 20.9513 43.397 20.9321 43.4135 20.913C43.4191 20.9074 43.4218 20.902 43.4244 20.8992C43.4547 20.8662 43.4821 20.8332 43.5069 20.8003C43.5233 20.7811 43.5398 20.7646 43.5536 20.7453C43.6031 20.6849 43.6525 20.6216 43.6993 20.5613C43.7267 20.5256 43.7543 20.4898 43.779 20.4541C43.7872 20.4459 43.7928 20.4376 43.7955 20.4294C43.7955 20.4294 43.801 20.4267 43.801 20.4238C43.8284 20.3882 43.856 20.3524 43.8779 20.3167C43.9082 20.2755 43.9383 20.2343 43.963 20.1931C43.9768 20.1793 43.985 20.1628 43.9933 20.1492C44.0042 20.1354 44.0125 20.1218 44.0207 20.108C44.0427 20.0777 44.0619 20.0476 44.0811 20.0173C44.1223 19.9541 44.1635 19.8881 44.202 19.8251C44.2047 19.8224 44.2076 19.8195 44.2076 19.8168C44.2488 19.7536 44.2844 19.6905 44.3203 19.6273C44.3285 19.6163 44.334 19.6052 44.3394 19.5943C44.3944 19.5036 44.4439 19.413 44.4905 19.325C44.5097 19.292 44.5261 19.2618 44.5426 19.2316C44.5756 19.1713 44.6059 19.108 44.636 19.0503C44.6607 19.0036 44.6827 18.957 44.7075 18.9129C44.7075 18.9102 44.7075 18.9074 44.7102 18.9047C44.7128 18.8937 44.7184 18.8826 44.7239 18.8744C44.7542 18.8167 44.7816 18.759 44.8064 18.704C44.8255 18.6628 44.8449 18.6216 44.8614 18.5831C44.8723 18.5611 44.8805 18.5419 44.8888 18.5227C44.8943 18.5118 44.8997 18.5007 44.9053 18.4897C44.9244 18.443 44.9438 18.4018 44.9603 18.3606C44.9658 18.3468 44.9712 18.3358 44.9794 18.3221C45.0756 18.1682 45.2926 18.1463 45.4162 18.2891C45.8255 18.7589 46.5726 19.6818 47.1056 20.7256C47.1194 20.7586 47.1277 20.7915 47.1413 20.8245C47.6138 22.2749 47.6715 23.8213 47.1413 24.4504C47.1248 24.4696 47.1083 24.4889 47.0891 24.5081C47.3034 24.541 47.5095 24.5796 47.7044 24.6235C47.7868 24.6426 47.8666 24.662 47.9461 24.6811C47.9873 24.6921 48.0285 24.7032 48.0671 24.7141C48.1439 24.7333 48.2181 24.7553 48.2896 24.7774C49.2098 25.0547 49.8745 25.4421 50.3196 25.8183C50.3581 25.8513 50.3938 25.8843 50.4294 25.9172C50.435 25.9199 50.4403 25.9228 50.4432 25.9282C50.4789 25.9611 50.5118 25.9941 50.5448 26.0271C50.5778 26.06 50.6107 26.093 50.641 26.1287C50.6713 26.1616 50.7014 26.1946 50.7261 26.2276C50.7729 26.2826 50.8141 26.3374 50.8497 26.3897C50.9569 26.5517 51.0173 26.6947 51.0338 26.8045C51.0357 26.8268 51.0383 26.846 51.0383 26.8654Z" fill="#F25A70"/>
<path d="M17.9909 29.4762C15.5788 29.4762 14.3666 31.9408 14.2376 33.0563C14.2299 33.123 14.307 33.1632 14.3587 33.1204C14.7721 32.7776 15.2227 32.6876 15.2227 32.6876C15.2227 32.6876 15.5549 36.7847 18.5447 36.7847C22.1988 36.7847 21.8666 29.4762 17.9909 29.4762Z" fill="#828282"/>
<path d="M30.3357 48.1075C32.1387 48.422 35.5421 48.6885 36.4833 47.7472C37.0924 47.1382 35.0927 44.4216 33.2166 42.6014C32.7464 42.121 31.8889 41.7676 31.0573 41.7676C29.2833 41.7676 27.8461 43.205 27.8461 44.9788C27.8462 46.5625 28.8287 47.8441 30.3357 48.1075Z" fill="#F4F1E4"/>
<path d="M48.7365 23.7679C49.1532 22.1025 48.3016 19.9358 46.2447 17.5678C45.9838 17.2674 45.6064 17.0952 45.2096 17.0952C44.6604 17.0952 44.1651 17.4213 43.9481 17.9261C43.8297 18.2016 43.543 18.8264 43.1306 19.4572C42.7136 18.6696 42.0966 18.061 41.7154 17.7313C41.465 17.5148 41.1455 17.3957 40.8155 17.3957C40.4736 17.3957 40.146 17.5226 39.893 17.7532C39.4469 18.1599 37.7835 19.4656 34.8003 19.5263C33.1743 18.8605 31.4505 18.5232 29.673 18.5232C24.6672 18.5232 20.0859 21.2661 17.7174 25.6812C17.5661 25.9651 16.9953 27.2373 16.5895 28.6036C14.5102 29.3074 13.3157 31.4977 13.1472 32.9262C13.108 33.2582 13.2128 33.5917 13.4345 33.8413C13.6572 34.0919 13.9772 34.2355 14.3126 34.2355C14.3446 34.2355 14.3766 34.2342 14.4083 34.2315C14.582 34.829 14.8589 35.524 15.2976 36.148C14.9022 39.3376 14.8974 42.6723 14.8974 42.8192C14.8974 46.3477 16.264 49.338 18.8492 51.4665C21.2199 53.4185 24.5136 54.4934 28.1236 54.4934C35.9077 54.4934 41.3444 49.7549 41.3444 42.9702C41.3444 39.6547 42.66 35.4484 42.8507 34.8561C43.0449 34.354 45.5581 28.1398 50.8787 28.1398C51.5428 28.1398 52.082 27.6379 52.1329 26.9722C52.2177 25.8673 50.965 24.4827 48.7365 23.7679ZM36.4185 50.3391C34.3118 52.0439 31.3657 52.9828 28.123 52.9828C20.0315 52.9828 16.4096 47.8785 16.4096 42.8198C16.4096 42.7859 16.4145 39.6593 16.7613 36.6486C17.2449 36.9847 17.8319 37.1968 18.5445 37.1968C19.4858 37.1968 20.2683 36.7809 20.8077 35.9941C21.2625 35.3302 21.5131 34.4274 21.5131 33.452C21.5131 31.3369 20.2915 29.0917 18.0282 29.0667C18.3936 27.8209 18.9203 26.6376 19.0493 26.3954C21.1545 22.4716 25.2254 20.0339 29.6738 20.0339C31.3247 20.0339 32.9223 20.3609 34.4226 21.0058C36.5577 21.9229 38.3756 23.4321 39.6792 25.3701C41.0134 27.3567 41.7187 29.6764 41.7187 32.079C41.7187 33.3623 41.3621 34.6732 40.9492 36.1911C40.4272 38.1103 39.8353 40.2857 39.8353 42.9706C39.8353 45.9823 38.6539 48.5302 36.4185 50.3391ZM19.6497 33.4443C17.4297 31.5019 15.4135 32.1706 15.0978 32.2935C15.0467 32.3058 14.9596 32.3294 14.8472 32.3713C15.2477 31.3403 16.2454 29.8881 17.9911 29.8881C19.7624 29.8881 20.6893 31.6809 20.6893 33.4517C20.6893 34.2626 20.4899 34.9997 20.128 35.5278C19.744 36.0883 19.2113 36.3725 18.5447 36.3725C17.4875 36.3725 16.6808 35.7713 16.1467 34.5856C15.8693 33.9698 15.7367 33.3454 15.6771 32.9789C16.2502 32.8482 17.5983 32.7441 19.1072 34.0643C19.1853 34.1328 19.2822 34.1662 19.3784 34.1662C19.4931 34.1662 19.6072 34.1187 19.6885 34.0255C19.8383 33.8545 19.8209 33.5942 19.6497 33.4443ZM40.6332 18.5652C40.685 18.518 40.75 18.4945 40.8153 18.4945C40.8797 18.4945 40.9442 18.5173 40.9966 18.5626C41.4553 18.9594 42.5523 20.0435 42.4614 21.2658C42.0028 21.6271 41.4842 21.8668 40.9128 21.8668C40.6852 21.8668 40.5007 22.0513 40.5007 22.2789C40.5007 22.5065 40.6852 22.6909 40.9128 22.6909C43.2902 22.6909 44.8025 19.7596 45.3154 18.5782C46.1808 19.2882 46.8165 20.8014 47.0254 22.088C47.1659 22.9537 47.1155 23.6991 46.9018 24.0757C46.4312 24.0109 45.9169 23.9708 45.3422 23.9708C45.1146 23.9708 44.9301 24.1553 44.9301 24.3829C44.9301 24.6105 45.1146 24.7949 45.3422 24.7949C48.527 24.7949 49.7767 25.9722 50.2321 26.6514C46.1025 26.9473 43.675 30.0519 42.5418 32.0147C42.5293 29.471 41.7774 27.0158 40.3633 24.9106C39.1202 23.0628 37.4375 21.5834 35.4685 20.5896C38.4164 20.3589 40.1198 19.0331 40.6332 18.5652Z" fill="#3A4042"/>
<path d="M25.8032 36.2099C26.9315 36.2099 27.8461 35.2953 27.8461 34.167C27.8461 33.0388 26.9315 32.1242 25.8032 32.1242C24.675 32.1242 23.7604 33.0388 23.7604 34.167C23.7604 35.2953 24.675 36.2099 25.8032 36.2099Z" fill="#3A4042"/>
<path d="M33.6113 48.8155C32.0737 48.8155 30.5525 48.5636 30.2648 48.5134H30.2647C28.5717 48.2173 27.4341 46.7969 27.4341 44.979C27.4341 42.981 29.0595 41.3557 31.0575 41.3557C31.9788 41.3557 32.942 41.7316 33.5113 42.3133C34.8532 43.615 36.9975 46.1602 37.007 47.4172C37.0094 47.7366 36.8821 47.9315 36.7748 48.0387C36.1708 48.6426 34.8854 48.8155 33.6113 48.8155ZM30.4065 47.7017C32.725 48.1062 35.5232 48.1249 36.1922 47.4561C36.3301 47.0622 35.004 44.9094 32.9301 42.8973C32.5134 42.4718 31.7464 42.1798 31.0576 42.1798C29.5141 42.1798 28.2585 43.4356 28.2585 44.9791C28.2582 46.3828 29.1216 47.4768 30.4065 47.7017Z" fill="#3A4042"/>
<path d="M3.67859 16.3099C5.21494 20.091 10.0104 22.907 13.9691 23.991C15.0838 24.2962 15.216 22.1701 16.2867 21.735C21.2184 19.7312 23.5694 14.0534 21.5377 9.05336C19.5061 4.05333 13.8612 1.62444 8.92958 3.62829C3.99791 5.63214 1.64696 11.3099 3.67859 16.3099Z" fill="#F25A70"/>
<path d="M3.67859 16.3099C5.21494 20.091 10.0104 22.907 13.9691 23.991C15.0838 24.2962 15.216 22.1701 16.2867 21.735C21.2184 19.7312 23.5694 14.0534 21.5377 9.05336C19.5061 4.05333 13.8612 1.62444 8.92958 3.62829C3.99791 5.63214 1.64696 11.3099 3.67859 16.3099Z" fill="#F25A70"/>
<path d="M3.67859 16.3099C5.21494 20.091 10.0104 22.907 13.9691 23.991C15.0838 24.2962 15.216 22.1701 16.2867 21.735C21.2184 19.7312 23.5694 14.0534 21.5377 9.05336C19.5061 4.05333 13.8612 1.62444 8.92958 3.62829C3.99791 5.63214 1.64696 11.3099 3.67859 16.3099Z" stroke="#F25A70"/>
<path d="M3.67859 16.3099C5.21494 20.091 10.0104 22.907 13.9691 23.991C15.0838 24.2962 15.216 22.1701 16.2867 21.735C21.2184 19.7312 23.5694 14.0534 21.5377 9.05336C19.5061 4.05333 13.8612 1.62444 8.92958 3.62829C3.99791 5.63214 1.64696 11.3099 3.67859 16.3099Z" stroke="#F25A70"/>
<path fill-rule="evenodd" clip-rule="evenodd" d="M12.6894 8.68398C12.7278 8.66836 12.769 8.66061 12.8106 8.66118C12.8523 8.66175 12.8935 8.67063 12.9319 8.68731C12.9704 8.704 13.0053 8.72816 13.0348 8.75842C13.0642 8.78867 13.0876 8.82443 13.1035 8.86365L15.8943 15.7321C15.9265 15.8113 15.9265 15.8998 15.8943 15.9781C15.8622 16.0564 15.8005 16.1181 15.7229 16.1497C15.6452 16.1812 15.558 16.18 15.4803 16.1463C15.4026 16.1126 15.3409 16.0492 15.3087 15.97L12.5179 9.10157C12.502 9.06236 12.4938 9.02045 12.4938 8.97823C12.4938 8.93602 12.5019 8.89434 12.5179 8.85556C12.5338 8.81678 12.5571 8.78167 12.5866 8.75223C12.616 8.72279 12.6509 8.6996 12.6894 8.68398ZM14.5289 9.53198C14.4873 9.53148 14.4461 9.53926 14.4077 9.55489C14.3692 9.57051 14.3343 9.59366 14.3048 9.62303C14.2754 9.6524 14.252 9.68741 14.236 9.72606C14.22 9.7647 14.2118 9.80624 14.2117 9.84828C14.2117 9.89032 14.2198 9.93205 14.2357 9.97108L15.9332 14.1488C15.9652 14.2277 16.0268 14.2907 16.1043 14.3242C16.1819 14.3576 16.2691 14.3586 16.3467 14.3271C16.4244 14.2955 16.4861 14.234 16.5184 14.1559C16.5506 14.0779 16.5508 13.9897 16.5187 13.9109L14.8212 9.73316C14.8054 9.69412 14.7821 9.65854 14.7527 9.62846C14.7234 9.59837 14.6885 9.57437 14.6501 9.55781C14.6117 9.54126 14.5705 9.53248 14.5289 9.53198ZM16.1639 10.1979C16.1224 10.1974 16.0812 10.2053 16.0427 10.2209C16.0043 10.2365 15.9693 10.2596 15.9398 10.289C15.9104 10.3183 15.887 10.3533 15.871 10.3919C15.855 10.4305 15.8467 10.4719 15.8466 10.5139C15.8465 10.5559 15.8546 10.5975 15.8705 10.6365L16.6406 12.5318C16.6564 12.5707 16.6796 12.6062 16.709 12.6362C16.7383 12.6662 16.7732 12.6902 16.8116 12.7067C16.8499 12.7232 16.8911 12.7319 16.9327 12.7324C16.9742 12.7329 17.0154 12.7251 17.0539 12.7094C17.0923 12.6938 17.1273 12.6707 17.1567 12.6413C17.1862 12.612 17.2096 12.577 17.2256 12.5384C17.2416 12.4999 17.2499 12.4584 17.25 12.4164C17.25 12.3745 17.2419 12.3328 17.2261 12.2938L16.456 10.3986C16.4402 10.3596 16.417 10.3241 16.3876 10.2941C16.3583 10.2641 16.3234 10.2401 16.2851 10.2236C16.2467 10.2071 16.2055 10.1984 16.1639 10.1979ZM12.1867 10.4837C12.1452 10.4832 12.104 10.4909 12.0655 10.5066C12.0271 10.5222 11.9921 10.5453 11.9627 10.5747C11.9332 10.6041 11.9098 10.6391 11.8938 10.6777C11.8779 10.7164 11.8696 10.7579 11.8696 10.8C11.8695 10.842 11.8776 10.8837 11.8935 10.9228L13.591 15.1005C13.623 15.1793 13.6846 15.2424 13.7622 15.2758C13.8397 15.3093 13.9269 15.3103 14.0046 15.2788C14.0822 15.2472 14.144 15.1856 14.1762 15.1076C14.2085 15.0295 14.2086 14.9414 14.1766 14.8626L12.4791 10.6848C12.4632 10.6458 12.4399 10.6102 12.4106 10.5801C12.3812 10.55 12.3463 10.526 12.3079 10.5095C12.2695 10.4929 12.2283 10.4842 12.1867 10.4837ZM11.3584 12.1242C11.3968 12.1086 11.438 12.1008 11.4796 12.1013C11.5212 12.1017 11.5623 12.1105 11.6007 12.127C11.6391 12.1435 11.6739 12.1674 11.7033 12.1974C11.7326 12.2275 11.7558 12.263 11.7717 12.3019L12.5418 14.1972C12.5737 14.2759 12.5735 14.3639 12.5412 14.4418C12.5089 14.5197 12.4472 14.5813 12.3695 14.6128C12.2919 14.6444 12.2047 14.6434 12.1272 14.61C12.0497 14.5767 11.9882 14.5138 11.9562 14.4351L11.1861 12.5398C11.1703 12.5009 11.1622 12.4592 11.1623 12.4173C11.1624 12.3753 11.1706 12.3338 11.1866 12.2952C11.2026 12.2566 11.226 12.2217 11.2555 12.1923C11.285 12.163 11.3199 12.1399 11.3584 12.1242ZM9.84456 11.4353C9.80297 11.4348 9.76177 11.4426 9.72332 11.4583C9.68487 11.4739 9.64992 11.497 9.62046 11.5264C9.59101 11.5558 9.56763 11.5908 9.55165 11.6294C9.53568 11.6681 9.52743 11.7096 9.52737 11.7516C9.52732 11.7937 9.53545 11.8354 9.55132 11.8744L11.2488 16.0522C11.2809 16.131 11.3424 16.1941 11.42 16.2275C11.4975 16.2609 11.5847 16.262 11.6624 16.2304C11.74 16.1989 11.8018 16.1373 11.834 16.0593C11.8663 15.9812 11.8664 15.8931 11.8344 15.8143L10.1369 11.6365C10.121 11.5975 10.0977 11.5619 10.0684 11.5318C10.039 11.5017 10.0041 11.4777 9.96573 11.4612C9.92732 11.4446 9.88615 11.4358 9.84456 11.4353ZM9.01617 13.0759C9.05462 13.0603 9.09581 13.0525 9.13739 13.053C9.17897 13.0534 9.22012 13.0622 9.25851 13.0787C9.29689 13.0952 9.33174 13.1191 9.36108 13.1491C9.39041 13.1791 9.41366 13.2146 9.42948 13.2536L10.1996 15.1489C10.2315 15.2276 10.2314 15.3155 10.1991 15.3935C10.1668 15.4714 10.105 15.5329 10.0273 15.5645C9.94969 15.596 9.86252 15.595 9.78501 15.5617C9.7075 15.5284 9.646 15.4655 9.61403 15.3868L8.84393 13.4915C8.8281 13.4526 8.81999 13.4109 8.82008 13.3689C8.82016 13.327 8.82844 13.2855 8.84443 13.2469C8.86043 13.2083 8.88383 13.1734 8.9133 13.144C8.94276 13.1147 8.97772 13.0915 9.01617 13.0759ZM8.22575 14.4886C8.38744 14.4229 8.57178 14.5008 8.63748 14.6625C8.70318 14.8241 8.62536 15.0085 8.46367 15.0742C8.30198 15.1399 8.11764 15.0621 8.05194 14.9004C7.98624 14.7387 8.06406 14.5543 8.22575 14.4886Z" fill="#FFFCEE"/>
<path d="M12.6894 8.68398L12.7835 8.91558L12.7834 8.91561L12.6894 8.68398ZM12.9319 8.68731L12.8324 8.91666L12.8324 8.91666L12.9319 8.68731ZM13.0348 8.75842L13.214 8.58409L13.214 8.58409L13.0348 8.75842ZM13.1035 8.86365L12.8719 8.95776L12.8719 8.95772L13.1035 8.86365ZM15.8943 15.7321L16.1259 15.638L15.8943 15.7321ZM15.3087 15.97L15.5404 15.8759L15.3087 15.97ZM12.5179 9.10157L12.7495 9.00743L12.7495 9.00746L12.5179 9.10157ZM12.5179 8.85556L12.7491 8.9505L12.7491 8.9505L12.5179 8.85556ZM12.5866 8.75223L12.4097 8.57549L12.4097 8.57549L12.5866 8.75223ZM14.4077 9.55489L14.5018 9.78649L14.5018 9.78652L14.4077 9.55489ZM14.5289 9.53198L14.5259 9.78196L14.5259 9.78196L14.5289 9.53198ZM14.3048 9.62303L14.4813 9.80007L14.4813 9.80007L14.3048 9.62303ZM14.2117 9.84828L14.4617 9.84862L14.4617 9.84862L14.2117 9.84828ZM14.2357 9.97108L14.4673 9.87693L14.4673 9.87697L14.2357 9.97108ZM15.9332 14.1488L16.1648 14.0547L16.1648 14.0547L15.9332 14.1488ZM16.1043 14.3242L16.2033 14.0946L16.2033 14.0946L16.1043 14.3242ZM16.5187 13.9109L16.2871 14.005L16.5187 13.9109ZM14.8212 9.73316L14.5896 9.82727L14.5896 9.82723L14.8212 9.73316ZM14.7527 9.62846L14.9316 9.45384L14.9316 9.45384L14.7527 9.62846ZM14.6501 9.55781L14.749 9.32823L14.749 9.32823L14.6501 9.55781ZM16.0427 10.2209L16.1369 10.4525L16.1368 10.4525L16.0427 10.2209ZM15.871 10.3919L16.1019 10.4876L16.1019 10.4876L15.871 10.3919ZM15.8466 10.5139L15.5966 10.5134L15.5966 10.5134L15.8466 10.5139ZM15.8705 10.6365L16.1021 10.5423L16.1021 10.5424L15.8705 10.6365ZM16.6406 12.5318L16.8722 12.4377L16.6406 12.5318ZM16.8116 12.7067L16.7128 12.9364L16.7128 12.9364L16.8116 12.7067ZM16.9327 12.7324L16.9355 12.4824L16.9355 12.4824L16.9327 12.7324ZM17.1567 12.6413L16.9803 12.4642L16.9803 12.4642L17.1567 12.6413ZM17.2256 12.5384L17.4566 12.6342L17.4566 12.6342L17.2256 12.5384ZM17.25 12.4164L17.5 12.417L17.25 12.4164ZM17.2261 12.2938L16.9945 12.388L17.2261 12.2938ZM16.456 10.3986L16.2244 10.4927L16.2244 10.4926L16.456 10.3986ZM16.3876 10.2941L16.2088 10.4688L16.2088 10.4688L16.3876 10.2941ZM12.0655 10.5066L12.1597 10.7382L12.1596 10.7382L12.0655 10.5066ZM12.1867 10.4837L12.1837 10.7336L12.1837 10.7336L12.1867 10.4837ZM11.8696 10.8L11.6196 10.7996L11.6196 10.7996L11.8696 10.8ZM11.8935 10.9228L12.1251 10.8286L12.1251 10.8286L11.8935 10.9228ZM13.591 15.1005L13.3594 15.1946L13.591 15.1005ZM14.1762 15.1076L14.4073 15.2031L14.4073 15.2031L14.1762 15.1076ZM14.1766 14.8626L13.945 14.9567L14.1766 14.8626ZM12.4791 10.6848L12.2474 10.7789L12.2474 10.7789L12.4791 10.6848ZM12.4106 10.5801L12.5895 10.4055L12.5895 10.4055L12.4106 10.5801ZM11.3584 12.1242L11.4525 12.3558L11.4524 12.3559L11.3584 12.1242ZM11.6007 12.127L11.6994 11.8973L11.6994 11.8973L11.6007 12.127ZM11.7717 12.3019L11.5401 12.396L11.54 12.396L11.7717 12.3019ZM12.5418 14.1972L12.7734 14.1031L12.7734 14.1031L12.5418 14.1972ZM12.5412 14.4418L12.3103 14.3461L12.3103 14.3461L12.5412 14.4418ZM11.9562 14.4351L12.1878 14.341L12.1878 14.341L11.9562 14.4351ZM11.1861 12.5398L11.4177 12.4457L11.4177 12.4457L11.1861 12.5398ZM11.1623 12.4173L10.9123 12.4168L10.9123 12.4168L11.1623 12.4173ZM11.1866 12.2952L11.4176 12.3909L11.4176 12.3909L11.1866 12.2952ZM9.72332 11.4583L9.81747 11.6898L9.81739 11.6899L9.72332 11.4583ZM9.84456 11.4353L9.84155 11.6853L9.84155 11.6853L9.84456 11.4353ZM9.55165 11.6294L9.32061 11.5339L9.32061 11.5339L9.55165 11.6294ZM9.55132 11.8744L9.78292 11.7803L9.78293 11.7803L9.55132 11.8744ZM11.2488 16.0522L11.4804 15.9581L11.2488 16.0522ZM11.42 16.2275L11.5189 15.9979L11.5189 15.9979L11.42 16.2275ZM11.834 16.0593L11.603 15.9638L11.603 15.9638L11.834 16.0593ZM10.1369 11.6365L9.90526 11.7306L9.90524 11.7306L10.1369 11.6365ZM10.0684 11.5318L9.88946 11.7064L9.88946 11.7064L10.0684 11.5318ZM9.13739 13.053L9.13455 13.3029L9.13455 13.3029L9.13739 13.053ZM9.01617 13.0759L9.11032 13.3075L9.11024 13.3075L9.01617 13.0759ZM9.25851 13.0787L9.15977 13.3083L9.15976 13.3083L9.25851 13.0787ZM9.42948 13.2536L9.19787 13.3477L9.19785 13.3477L9.42948 13.2536ZM10.1996 15.1489L10.4312 15.0548L10.1996 15.1489ZM10.1991 15.3935L9.9681 15.2978L9.9681 15.2978L10.1991 15.3935ZM9.78501 15.5617L9.88375 15.332L9.88375 15.3321L9.78501 15.5617ZM9.61403 15.3868L9.84564 15.2927L9.61403 15.3868ZM8.84393 13.4915L9.07553 13.3974L9.07554 13.3974L8.84393 13.4915ZM8.82008 13.3689L8.57008 13.3684L8.57008 13.3684L8.82008 13.3689ZM8.9133 13.144L9.08969 13.3212L9.08969 13.3212L8.9133 13.144ZM8.22575 14.4886L8.31986 14.7203L8.22575 14.4886ZM8.05194 14.9004L7.82033 14.9945L7.82033 14.9945L8.05194 14.9004ZM12.8072 8.91115C12.7989 8.91104 12.7909 8.91258 12.7835 8.91558L12.5952 8.45239C12.6647 8.42413 12.7391 8.41017 12.8141 8.4112L12.8072 8.91115ZM12.8324 8.91666C12.8241 8.91304 12.8155 8.91127 12.8072 8.91115L12.8141 8.4112C12.889 8.41223 12.9629 8.42821 13.0314 8.45797L12.8324 8.91666ZM12.8556 8.93274C12.8487 8.92567 12.8408 8.92028 12.8324 8.91666L13.0314 8.45797C13.1 8.48772 13.162 8.53064 13.214 8.58409L12.8556 8.93274ZM12.8719 8.95772C12.868 8.9483 12.8625 8.93981 12.8556 8.93274L13.214 8.58409C13.266 8.63753 13.3071 8.70057 13.3351 8.76958L12.8719 8.95772ZM15.6627 15.8262L12.8719 8.95776L13.3351 8.76954L16.1259 15.638L15.6627 15.8262ZM15.6631 15.8832C15.6701 15.8661 15.6705 15.8454 15.6627 15.8262L16.1259 15.638C16.1824 15.7772 16.1829 15.9335 16.1256 16.0731L15.6631 15.8832ZM15.6287 15.9181C15.6435 15.9121 15.6561 15.9001 15.6631 15.8832L16.1256 16.0731C16.0682 16.2128 15.9575 16.3242 15.817 16.3813L15.6287 15.9181ZM15.5798 15.917C15.5965 15.9243 15.614 15.9241 15.6287 15.9181L15.817 16.3813C15.6764 16.4384 15.5194 16.4358 15.3808 16.3757L15.5798 15.917ZM15.5404 15.8759C15.5482 15.8952 15.5628 15.9096 15.5798 15.917L15.3808 16.3757C15.2424 16.3157 15.1337 16.2033 15.0771 16.0641L15.5404 15.8759ZM12.7495 9.00746L15.5404 15.8759L15.0771 16.0641L12.2863 9.19568L12.7495 9.00746ZM12.7438 8.97817C12.7438 8.98803 12.7457 8.998 12.7495 9.00743L12.2863 9.19572C12.2583 9.12671 12.2438 9.05286 12.2438 8.9783L12.7438 8.97817ZM12.7491 8.9505C12.7457 8.95892 12.7438 8.96831 12.7438 8.97817L12.2438 8.9783C12.2438 8.90374 12.2582 8.82976 12.2866 8.76062L12.7491 8.9505ZM12.7634 8.92897C12.7575 8.93484 12.7526 8.9421 12.7491 8.9505L12.2866 8.76062C12.315 8.69146 12.3568 8.62849 12.4097 8.57549L12.7634 8.92897ZM12.7834 8.91561C12.7761 8.91861 12.7692 8.9231 12.7634 8.92897L12.4097 8.57549C12.4627 8.52248 12.5258 8.48059 12.5953 8.45236L12.7834 8.91561ZM14.3135 9.3233C14.3829 9.2951 14.4571 9.28109 14.5319 9.28199L14.5259 9.78196C14.5175 9.78186 14.5094 9.78342 14.5018 9.78649L14.3135 9.3233ZM14.1283 9.44599C14.1813 9.39317 14.2442 9.35144 14.3136 9.32326L14.5018 9.78652C14.4942 9.78958 14.4873 9.79415 14.4813 9.80007L14.1283 9.44599ZM14.005 9.63057C14.0335 9.56157 14.0753 9.49881 14.1283 9.44599L14.4813 9.80007C14.4754 9.80599 14.4705 9.81324 14.4671 9.82154L14.005 9.63057ZM13.9617 9.84794C13.9618 9.77342 13.9765 9.69956 14.005 9.63057L14.4671 9.82154C14.4636 9.82985 14.4617 9.83905 14.4617 9.84862L13.9617 9.84794ZM14.0041 10.0652C13.976 9.99625 13.9616 9.92244 13.9617 9.84794L14.4617 9.84862C14.4617 9.8582 14.4636 9.86784 14.4673 9.87693L14.0041 10.0652ZM15.7016 14.2429L14.0041 10.0652L14.4673 9.87697L16.1648 14.0547L15.7016 14.2429ZM16.0054 14.5537C15.867 14.4941 15.7581 14.3821 15.7016 14.2429L16.1648 14.0547C16.1723 14.0732 16.1865 14.0873 16.2033 14.0946L16.0054 14.5537ZM16.4408 14.5587C16.3006 14.6157 16.1439 14.6134 16.0054 14.5537L16.2033 14.0946C16.2199 14.1017 16.2375 14.1016 16.2526 14.0955L16.4408 14.5587ZM16.7494 14.2514C16.6918 14.3908 16.5811 14.5017 16.4408 14.5587L16.2526 14.0955C16.2677 14.0894 16.2804 14.0771 16.2873 14.0604L16.7494 14.2514ZM16.7503 13.8168C16.8069 13.9559 16.807 14.1122 16.7494 14.2514L16.2873 14.0604C16.2943 14.0436 16.2947 14.0235 16.2871 14.005L16.7503 13.8168ZM15.0528 9.63905L16.7503 13.8168L16.2871 14.005L14.5896 9.82727L15.0528 9.63905ZM14.9316 9.45384C14.9837 9.50716 15.0248 9.57011 15.0529 9.63909L14.5896 9.82723C14.5859 9.81814 14.5805 9.80993 14.5738 9.80307L14.9316 9.45384ZM14.749 9.32823C14.8176 9.35778 14.8796 9.40052 14.9316 9.45384L14.5738 9.80307C14.5671 9.79623 14.5594 9.79095 14.5511 9.78739L14.749 9.32823ZM14.5319 9.28199C14.6067 9.2829 14.6805 9.29868 14.749 9.32823L14.5511 9.78739C14.5429 9.78383 14.5343 9.78206 14.5259 9.78196L14.5319 9.28199ZM15.9486 9.98928C16.0179 9.96112 16.092 9.94709 16.1668 9.94794L16.1611 10.4479C16.1527 10.4478 16.1445 10.4494 16.1369 10.4525L15.9486 9.98928ZM15.7634 10.1118C15.8164 10.0591 15.8793 10.0174 15.9486 9.98925L16.1368 10.4525C16.1292 10.4556 16.1222 10.4602 16.1162 10.4661L15.7634 10.1118ZM15.64 10.2962C15.6686 10.2272 15.7105 10.1645 15.7634 10.1118L16.1162 10.4661C16.1103 10.4721 16.1054 10.4793 16.1019 10.4876L15.64 10.2962ZM15.5966 10.5134C15.5968 10.4389 15.6115 10.3651 15.64 10.2962L16.1019 10.4876C16.0985 10.4959 16.0966 10.505 16.0966 10.5144L15.5966 10.5134ZM15.6389 10.7306C15.6109 10.6617 15.5965 10.5879 15.5966 10.5134L16.0966 10.5144C16.0966 10.5239 16.0984 10.5334 16.1021 10.5423L15.6389 10.7306ZM16.409 12.6259L15.6389 10.7306L16.1021 10.5424L16.8722 12.4377L16.409 12.6259ZM16.5302 12.811C16.4782 12.7577 16.437 12.6948 16.409 12.6259L16.8722 12.4377C16.8758 12.4466 16.8811 12.4547 16.8878 12.4615L16.5302 12.811ZM16.7128 12.9364C16.6443 12.9069 16.5823 12.8642 16.5302 12.811L16.8878 12.4615C16.8944 12.4682 16.9021 12.4735 16.9103 12.477L16.7128 12.9364ZM16.9298 12.9824C16.8551 12.9815 16.7814 12.9658 16.7128 12.9364L16.9103 12.477C16.9185 12.4805 16.9271 12.4823 16.9355 12.4824L16.9298 12.9824ZM17.148 12.9411C17.0787 12.9692 17.0045 12.9832 16.9298 12.9824L16.9355 12.4824C16.9439 12.4825 16.9522 12.4809 16.9598 12.4778L17.148 12.9411ZM17.3332 12.8185C17.2802 12.8712 17.2173 12.9129 17.148 12.9411L16.9598 12.4778C16.9674 12.4747 16.9744 12.4701 16.9803 12.4642L17.3332 12.8185ZM17.4566 12.6342C17.428 12.7031 17.3861 12.7658 17.3332 12.8185L16.9803 12.4642C16.9863 12.4582 16.9912 12.451 16.9946 12.4427L17.4566 12.6342ZM17.5 12.417C17.4998 12.4914 17.4851 12.5652 17.4566 12.6342L16.9946 12.4427C16.9981 12.4345 16.9999 12.4253 17 12.4159L17.5 12.417ZM17.4577 12.1997C17.4857 12.2687 17.5001 12.3425 17.5 12.417L17 12.4159C17 12.4064 16.9981 12.3969 16.9945 12.388L17.4577 12.1997ZM16.6876 10.3045L17.4577 12.1997L16.9945 12.388L16.2244 10.4927L16.6876 10.3045ZM16.5664 10.1193C16.6185 10.1726 16.6596 10.2355 16.6876 10.3045L16.2244 10.4926C16.2208 10.4837 16.2154 10.4756 16.2088 10.4688L16.5664 10.1193ZM16.3838 9.99395C16.4523 10.0234 16.5143 10.0661 16.5664 10.1193L16.2088 10.4688C16.2022 10.4621 16.1945 10.4568 16.1863 10.4533L16.3838 9.99395ZM16.1668 9.94794C16.2415 9.94879 16.3152 9.96448 16.3838 9.99395L16.1863 10.4533C16.1781 10.4498 16.1695 10.448 16.1611 10.4479L16.1668 9.94794ZM11.9714 10.275C12.0407 10.2468 12.115 10.2328 12.1898 10.2337L12.1837 10.7336C12.1754 10.7335 12.1672 10.7351 12.1597 10.7382L11.9714 10.275ZM11.7861 10.3977C11.8391 10.3448 11.9021 10.3031 11.9714 10.2749L12.1596 10.7382C12.152 10.7413 12.1451 10.7458 12.1392 10.7517L11.7861 10.3977ZM11.6628 10.5822C11.6913 10.5132 11.7332 10.4505 11.7861 10.3977L12.1392 10.7517C12.1332 10.7577 12.1283 10.7649 12.1249 10.7732L11.6628 10.5822ZM11.6196 10.7996C11.6197 10.7251 11.6343 10.6512 11.6628 10.5822L12.1249 10.7732C12.1215 10.7815 12.1196 10.7907 12.1196 10.8003L11.6196 10.7996ZM11.6619 11.0169C11.6339 10.9479 11.6195 10.8741 11.6196 10.7996L12.1196 10.8003C12.1195 10.8099 12.1214 10.8195 12.1251 10.8286L11.6619 11.0169ZM13.3594 15.1946L11.6619 11.0169L12.1251 10.8286L13.8226 15.0064L13.3594 15.1946ZM13.6632 15.5054C13.5249 15.4458 13.4159 15.3337 13.3594 15.1946L13.8226 15.0064C13.8302 15.0249 13.8444 15.039 13.8611 15.0462L13.6632 15.5054ZM14.0987 15.5104C13.9585 15.5673 13.8017 15.5651 13.6632 15.5054L13.8611 15.0462C13.8777 15.0534 13.8954 15.0533 13.9105 15.0472L14.0987 15.5104ZM14.4073 15.2031C14.3496 15.3425 14.2389 15.4534 14.0987 15.5104L13.9105 15.0472C13.9255 15.041 13.9383 15.0288 13.9452 15.0121L14.4073 15.2031ZM14.4082 14.7685C14.4647 14.9076 14.4648 15.0638 14.4073 15.2031L13.9452 15.0121C13.9521 14.9952 13.9525 14.9752 13.945 14.9567L14.4082 14.7685ZM12.7107 10.5907L14.4082 14.7685L13.945 14.9567L12.2474 10.7789L12.7107 10.5907ZM12.5895 10.4055C12.6415 10.4588 12.6827 10.5218 12.7107 10.5908L12.2474 10.7789C12.2437 10.7698 12.2383 10.7616 12.2316 10.7547L12.5895 10.4055ZM12.4069 10.2799C12.4754 10.3095 12.5374 10.3522 12.5895 10.4055L12.2316 10.7547C12.225 10.7479 12.2172 10.7426 12.2089 10.7391L12.4069 10.2799ZM12.1898 10.2337C12.2645 10.2346 12.3383 10.2504 12.4069 10.2799L12.2089 10.7391C12.2007 10.7355 12.1921 10.7337 12.1837 10.7336L12.1898 10.2337ZM11.4767 12.3513C11.4683 12.3512 11.4601 12.3527 11.4525 12.3558L11.2642 11.8926C11.3335 11.8645 11.4077 11.8504 11.4824 11.8513L11.4767 12.3513ZM11.502 12.3567C11.4937 12.3531 11.4852 12.3514 11.4767 12.3513L11.4824 11.8513C11.5571 11.8521 11.6309 11.8678 11.6994 11.8973L11.502 12.3567ZM11.5245 12.3722C11.5179 12.3654 11.5102 12.3602 11.502 12.3567L11.6994 11.8973C11.768 11.9268 11.83 11.9694 11.8821 12.0227L11.5245 12.3722ZM11.54 12.396C11.5364 12.387 11.5311 12.3789 11.5245 12.3722L11.8821 12.0227C11.9341 12.076 11.9753 12.1389 12.0033 12.2078L11.54 12.396ZM12.3102 14.2913L11.5401 12.396L12.0033 12.2078L12.7734 14.1031L12.3102 14.2913ZM12.3103 14.3461C12.3172 14.3293 12.3176 14.3095 12.3101 14.2913L12.7734 14.1031C12.8299 14.2422 12.8298 14.3984 12.7722 14.5375L12.3103 14.3461ZM12.2754 14.3812C12.2906 14.375 12.3034 14.3627 12.3103 14.3461L12.7722 14.5375C12.7145 14.6768 12.6037 14.7875 12.4636 14.8444L12.2754 14.3812ZM12.2259 14.3804C12.2425 14.3875 12.2602 14.3874 12.2754 14.3812L12.4636 14.8444C12.3236 14.9013 12.1669 14.8993 12.0285 14.8397L12.2259 14.3804ZM12.1878 14.341C12.1952 14.3592 12.2093 14.3732 12.2259 14.3804L12.0285 14.8397C11.8901 14.7802 11.7811 14.6684 11.7246 14.5292L12.1878 14.341ZM11.4177 12.4457L12.1878 14.341L11.7246 14.5292L10.9545 12.634L11.4177 12.4457ZM11.4123 12.4178C11.4122 12.4272 11.4141 12.4367 11.4177 12.4457L10.9545 12.634C10.9265 12.565 10.9121 12.4912 10.9123 12.4168L11.4123 12.4178ZM11.4176 12.3909C11.4141 12.3992 11.4123 12.4083 11.4123 12.4178L10.9123 12.4168C10.9124 12.3423 10.9271 12.2684 10.9557 12.1995L11.4176 12.3909ZM11.4319 12.3695C11.4259 12.3754 11.421 12.3827 11.4176 12.3909L10.9557 12.1995C10.9842 12.1306 11.0261 12.0679 11.0791 12.0152L11.4319 12.3695ZM11.4524 12.3559C11.4448 12.3589 11.4378 12.3635 11.4319 12.3695L11.0791 12.0152C11.1321 11.9624 11.195 11.9208 11.2643 11.8926L11.4524 12.3559ZM9.62918 11.2267C9.69853 11.1985 9.77277 11.1845 9.84757 11.1854L9.84155 11.6853C9.83316 11.6852 9.82501 11.6868 9.81747 11.6898L9.62918 11.2267ZM9.44395 11.3494C9.49692 11.2965 9.55989 11.2548 9.62925 11.2266L9.81739 11.6899C9.80986 11.6929 9.80292 11.6975 9.79698 11.7034L9.44395 11.3494ZM9.32061 11.5339C9.34912 11.4649 9.39098 11.4022 9.44395 11.3494L9.79698 11.7034C9.79104 11.7094 9.78613 11.7166 9.7827 11.7249L9.32061 11.5339ZM9.27737 11.7513C9.27748 11.6768 9.2921 11.6029 9.32061 11.5339L9.7827 11.7249C9.77927 11.7332 9.77739 11.7424 9.77737 11.752L9.27737 11.7513ZM9.31972 11.9686C9.29169 11.8996 9.27727 11.8258 9.27737 11.7513L9.77737 11.752C9.77736 11.7616 9.77922 11.7712 9.78292 11.7803L9.31972 11.9686ZM11.0172 16.1463L9.31971 11.9686L9.78293 11.7803L11.4804 15.9581L11.0172 16.1463ZM11.321 16.4571C11.1827 16.3974 11.0738 16.2854 11.0172 16.1463L11.4804 15.9581C11.488 15.9766 11.5022 15.9907 11.5189 15.9979L11.321 16.4571ZM11.7565 16.4621C11.6163 16.519 11.4595 16.5168 11.321 16.4571L11.5189 15.9979C11.5355 16.0051 11.5532 16.005 11.5683 15.9988L11.7565 16.4621ZM12.0651 16.1548C12.0075 16.2942 11.8967 16.4051 11.7565 16.4621L11.5683 15.9988C11.5833 15.9927 11.5961 15.9805 11.603 15.9638L12.0651 16.1548ZM12.066 15.7202C12.1225 15.8593 12.1226 16.0155 12.0651 16.1548L11.603 15.9638C11.6099 15.9469 11.6103 15.9269 11.6028 15.9084L12.066 15.7202ZM10.3685 11.5424L12.066 15.7202L11.6028 15.9084L9.90526 11.7306L10.3685 11.5424ZM10.2473 11.3572C10.2993 11.4105 10.3405 11.4735 10.3685 11.5424L9.90524 11.7306C9.90155 11.7215 9.89615 11.7133 9.88946 11.7064L10.2473 11.3572ZM10.0647 11.2316C10.1332 11.2611 10.1952 11.3039 10.2473 11.3572L9.88946 11.7064C9.88278 11.6996 9.87502 11.6943 9.86676 11.6908L10.0647 11.2316ZM9.84757 11.1854C9.92236 11.1863 9.99613 11.202 10.0647 11.2316L9.86676 11.6908C9.85851 11.6872 9.84994 11.6854 9.84155 11.6853L9.84757 11.1854ZM9.13455 13.3029C9.12613 13.3029 9.11792 13.3044 9.11032 13.3075L8.92203 12.8443C8.99132 12.8162 9.06548 12.8021 9.14022 12.803L9.13455 13.3029ZM9.15976 13.3083C9.15155 13.3048 9.14298 13.303 9.13455 13.3029L9.14022 12.803C9.21496 12.8038 9.2887 12.8195 9.35725 12.849L9.15976 13.3083ZM9.18229 13.3239C9.17568 13.3171 9.16799 13.3119 9.15977 13.3083L9.35725 12.849C9.42579 12.8785 9.4878 12.9211 9.53987 12.9744L9.18229 13.3239ZM9.19785 13.3477C9.19422 13.3387 9.1889 13.3306 9.18229 13.3239L9.53987 12.9744C9.59193 13.0277 9.6331 13.0906 9.66111 13.1595L9.19785 13.3477ZM9.96796 15.243L9.19787 13.3477L9.66109 13.1595L10.4312 15.0548L9.96796 15.243ZM9.9681 15.2978C9.97505 15.281 9.97537 15.2612 9.96796 15.243L10.4312 15.0548C10.4877 15.1939 10.4877 15.3501 10.43 15.4892L9.9681 15.2978ZM9.93323 15.3329C9.94846 15.3267 9.96121 15.3144 9.9681 15.2978L10.43 15.4892C10.3723 15.6285 10.2615 15.7392 10.1214 15.7961L9.93323 15.3329ZM9.88375 15.3321C9.90028 15.3392 9.91799 15.3391 9.93323 15.3329L10.1214 15.7961C9.98138 15.853 9.82476 15.8509 9.68627 15.7914L9.88375 15.3321ZM9.84564 15.2927C9.85304 15.3109 9.86707 15.3249 9.88375 15.332L9.68627 15.7914C9.54793 15.7319 9.43895 15.62 9.38242 15.4809L9.84564 15.2927ZM9.07554 13.3974L9.84564 15.2927L9.38242 15.4809L8.61232 13.5856L9.07554 13.3974ZM9.07008 13.3695C9.07006 13.3789 9.07189 13.3884 9.07553 13.3974L8.61234 13.5857C8.58431 13.5167 8.56993 13.4429 8.57008 13.3684L9.07008 13.3695ZM9.07539 13.3426C9.07196 13.3509 9.0701 13.36 9.07008 13.3695L8.57008 13.3684C8.57023 13.294 8.58492 13.2201 8.61348 13.1512L9.07539 13.3426ZM9.08969 13.3212C9.08372 13.3271 9.07881 13.3344 9.07539 13.3426L8.61348 13.1512C8.64205 13.0823 8.68394 13.0196 8.7369 12.9669L9.08969 13.3212ZM9.11024 13.3075C9.10264 13.3106 9.09566 13.3152 9.08969 13.3212L8.7369 12.9669C8.78987 12.9141 8.8528 12.8724 8.9221 12.8443L9.11024 13.3075ZM8.40587 14.7566C8.39215 14.7228 8.35364 14.7065 8.31986 14.7203L8.13164 14.257C8.42125 14.1394 8.75142 14.2787 8.86909 14.5683L8.40587 14.7566ZM8.36956 14.8426C8.40334 14.8289 8.4196 14.7903 8.40587 14.7566L8.86909 14.5683C8.98677 14.858 8.84739 15.1881 8.55778 15.3058L8.36956 14.8426ZM8.28355 14.8063C8.29727 14.84 8.33578 14.8563 8.36956 14.8426L8.55778 15.3058C8.26817 15.4235 7.938 15.2841 7.82033 14.9945L8.28355 14.8063ZM8.31986 14.7203C8.28608 14.734 8.26982 14.7725 8.28355 14.8063L7.82033 14.9945C7.70265 14.7049 7.84203 14.3747 8.13164 14.257L8.31986 14.7203Z" fill="#FFFCEE"/>
<path d="M46.2651 42.066C46.2651 37.5496 49.6195 34.0857 54.2454 34.0857C57.0298 34.0857 59.4853 35.4669 60.8227 37.6374L57.7972 39.3913C57.1175 38.2074 55.8021 37.5058 54.2454 37.5058C51.5269 37.5058 49.7729 39.3256 49.7729 42.0661C49.7729 44.8067 51.5269 46.6263 54.2454 46.6263C55.8021 46.6263 57.1394 45.9247 57.7972 44.741L60.8227 46.4949C59.5072 48.6654 57.0517 50.0466 54.2454 50.0466C49.6195 50.0465 46.2651 46.5824 46.2651 42.066Z" fill="#FFFCEE"/>
<path d="M61.9187 44.2585C61.9187 40.9917 64.5058 38.4705 67.7286 38.4705C70.9515 38.4705 73.5386 40.9917 73.5386 44.2585C73.5386 47.5253 70.9515 50.0465 67.7286 50.0465C64.5058 50.0465 61.9187 47.5253 61.9187 44.2585ZM70.2499 44.2585C70.2499 42.7018 69.1537 41.6714 67.7286 41.6714C66.3036 41.6714 65.2074 42.7018 65.2074 44.2585C65.2074 45.8151 66.3036 46.8456 67.7286 46.8456C69.1537 46.8456 70.2499 45.8151 70.2499 44.2585Z" fill="#FFFCEE"/>
<path d="M75.4016 33.7349H78.6903V49.7396H75.4016V33.7349Z" fill="#FFFCEE"/>
<path d="M81.1016 33.7349H84.3903V49.7396H81.1016V33.7349Z" fill="#FFFCEE"/>
<path d="M98.0488 38.7775V49.7395H94.7601V48.7091C94.0366 49.5421 92.9623 50.0465 91.4935 50.0465C88.6213 50.0465 86.2536 47.5253 86.2536 44.2585C86.2536 40.9917 88.6213 38.4705 91.4935 38.4705C92.9623 38.4705 94.0366 38.9747 94.7601 39.8078V38.7775H98.0488ZM94.7601 44.2585C94.7601 42.6141 93.6639 41.5837 92.1511 41.5837C90.6385 41.5837 89.5423 42.614 89.5423 44.2585C89.5423 45.9027 90.6385 46.9332 92.1511 46.9332C93.6639 46.9332 94.7601 45.9028 94.7601 44.2585Z" fill="#FFFCEE"/>
<path d="M112.255 44.2585C112.255 47.5252 109.887 50.0465 107.015 50.0465C105.546 50.0465 104.472 49.5421 103.749 48.7091V49.7395H100.46V34.3925H103.749V39.8078C104.472 38.9747 105.546 38.4705 107.015 38.4705C109.887 38.4705 112.255 40.9917 112.255 44.2585ZM108.966 44.2585C108.966 42.6141 107.87 41.5837 106.357 41.5837C104.845 41.5837 103.749 42.614 103.749 44.2585C103.749 45.9027 104.845 46.9332 106.357 46.9332C107.87 46.9332 108.966 45.9028 108.966 44.2585Z" fill="#FFFCEE"/>
<path d="M123.181 50.1205H120.443C119.39 50.1205 118.567 49.8121 117.976 49.1952C117.41 48.5526 117.128 47.653 117.128 46.4964V38.1687C117.128 37.0892 117.423 36.2153 118.014 35.547C118.606 34.8787 119.415 34.5446 120.443 34.5446H123.181C124.209 34.5446 125.006 34.8787 125.571 35.547C126.162 36.2153 126.458 37.0892 126.458 38.1687V39.2097C126.458 39.3896 126.406 39.5695 126.304 39.7494C126.227 39.9293 126.059 40.0193 125.802 40.0193H125.533C125.276 40.0193 125.096 39.9422 124.993 39.788C124.89 39.608 124.839 39.4153 124.839 39.2097V38.1687C124.839 36.8836 124.286 36.241 123.181 36.241H120.443C119.338 36.241 118.786 36.8836 118.786 38.1687V46.4578C118.786 47.7687 119.338 48.4241 120.443 48.4241H123.181C124.286 48.4241 124.839 47.7687 124.839 46.4578V45.4169C124.839 44.9285 125.07 44.6844 125.533 44.6844H125.802C126.034 44.6844 126.201 44.7743 126.304 44.9542C126.406 45.1084 126.458 45.2627 126.458 45.4169V46.4964C126.458 47.653 126.175 48.5526 125.61 49.1952C125.044 49.8121 124.235 50.1205 123.181 50.1205Z" fill="white"/>
<path d="M137.538 50.1205H137.268C136.882 50.1205 136.689 49.902 136.689 49.4651V41.8313C136.689 40.649 136.188 40.0578 135.186 40.0578H133.798C132.693 40.0578 132.14 40.6233 132.14 41.7542V49.4651C132.14 49.902 131.947 50.1205 131.562 50.1205H131.292C131.086 50.1205 130.932 50.0434 130.829 49.8892C130.752 49.735 130.714 49.5936 130.714 49.4651V35.1615C130.714 35.0072 130.752 34.8659 130.829 34.7374C130.932 34.5832 131.086 34.506 131.292 34.506H131.562C131.947 34.506 132.14 34.7245 132.14 35.1615V38.9012C132.731 38.6442 133.284 38.5157 133.798 38.5157H135.186C136.085 38.5157 136.805 38.8113 137.345 39.4024C137.885 39.9679 138.155 40.7775 138.155 41.8313V49.4651C138.155 49.902 137.949 50.1205 137.538 50.1205Z" fill="white"/>
<path d="M148.901 50.1205H148.67C148.413 50.1205 148.22 49.9791 148.092 49.6964C147.526 49.9791 146.973 50.1205 146.434 50.1205H145.046C144.12 50.1205 143.388 49.8249 142.848 49.2337C142.334 48.6426 142.077 47.8586 142.077 46.8819V42.0241C142.077 41.0474 142.334 40.2635 142.848 39.6723C143.388 39.0811 144.12 38.7856 145.046 38.7856H148.901C149.312 38.7856 149.518 38.9912 149.518 39.4024V49.4651C149.518 49.902 149.312 50.1205 148.901 50.1205ZM147.359 40.2892C147.333 40.2892 147.205 40.2892 146.973 40.2892C146.742 40.2892 146.485 40.2892 146.202 40.2892C145.92 40.2892 145.663 40.2892 145.431 40.2892C145.2 40.2892 145.071 40.2892 145.046 40.2892C144.018 40.2892 143.504 40.8675 143.504 42.0241V46.8434C143.504 48.0257 144.018 48.6169 145.046 48.6169H146.395C147.526 48.6169 148.092 48.0643 148.092 46.9591C148.092 45.2627 148.092 44.0289 148.092 43.2578C148.117 42.4868 148.13 41.9599 148.13 41.6771C148.13 41.3687 148.104 41.0731 148.053 40.7904C148.027 40.5076 147.796 40.3406 147.359 40.2892Z" fill="white"/>
<path d="M158.188 50.1205H157.533C156.633 50.1205 155.901 49.8249 155.335 49.2337C154.795 48.6426 154.526 47.8586 154.526 46.8819V40.1735H153.639C153.51 40.1735 153.382 40.1221 153.253 40.0193C153.125 39.9165 153.061 39.7623 153.061 39.5566V39.2868C153.061 38.8498 153.253 38.6313 153.639 38.6313H154.526V37.3205C154.526 37.1663 154.577 37.0121 154.68 36.8578C154.783 36.7036 154.937 36.6265 155.142 36.6265H155.412C155.618 36.6265 155.759 36.7165 155.836 36.8964C155.914 37.0506 155.952 37.192 155.952 37.3205V38.6313H157.995C158.381 38.6313 158.574 38.8498 158.574 39.2868V39.5566C158.574 39.7623 158.51 39.9165 158.381 40.0193C158.252 40.1221 158.124 40.1735 157.995 40.1735H155.952V46.8819C155.952 48.0129 156.479 48.5783 157.533 48.5783H158.188C158.574 48.5783 158.767 48.7839 158.767 49.1952V49.5036C158.767 49.7093 158.702 49.8635 158.574 49.9663C158.445 50.0691 158.317 50.1205 158.188 50.1205Z" fill="white"/>
</svg>
