<svg width="103" height="15" viewBox="0 0 103 15" fill="none" xmlns="http://www.w3.org/2000/svg">
<path d="M0 7.62663C0 3.49214 3.07075 0.321106 7.30553 0.321106C9.85445 0.321106 12.1023 1.58554 13.3267 3.57249L10.557 5.17811C9.93481 4.09426 8.73056 3.45204 7.30553 3.45204C4.81686 3.45204 3.21124 5.11797 3.21124 7.62669C3.21124 10.1355 4.81686 11.8013 7.30553 11.8013C8.73056 11.8013 9.95485 11.1591 10.557 10.0754L13.3267 11.681C12.1224 13.6679 9.87455 14.9324 7.30553 14.9324C3.07075 14.9323 0 11.7611 0 7.62663Z" fill="#FFFCEE"/>
<path d="M14.33 9.63373C14.33 6.64323 16.6983 4.33514 19.6486 4.33514C22.5989 4.33514 24.9673 6.64317 24.9673 9.63373C24.9673 12.6243 22.5989 14.9323 19.6486 14.9323C16.6983 14.9323 14.33 12.6243 14.33 9.63373ZM21.9567 9.63373C21.9567 8.2087 20.9532 7.2654 19.6486 7.2654C18.3441 7.2654 17.3406 8.2087 17.3406 9.63373C17.3406 11.0588 18.3441 12.0021 19.6486 12.0021C20.9532 12.0021 21.9567 11.0588 21.9567 9.63373Z" fill="#FFFCEE"/>
<path d="M26.6728 0H29.6834V14.6513H26.6728V0Z" fill="#FFFCEE"/>
<path d="M31.8908 0H34.9014V14.6513H31.8908V0Z" fill="#FFFCEE"/>
<path d="M47.4049 4.61619V14.6513H44.3943V13.708C43.732 14.4706 42.7486 14.9323 41.4039 14.9323C38.7746 14.9323 36.6071 12.6243 36.6071 9.63373C36.6071 6.64317 38.7746 4.33514 41.4039 4.33514C42.7486 4.33514 43.732 4.79677 44.3943 5.55937V4.61619H47.4049ZM44.3944 9.63373C44.3944 8.1284 43.3909 7.18515 42.006 7.18515C40.6212 7.18515 39.6177 8.12834 39.6177 9.63373C39.6177 11.1389 40.6212 12.0823 42.006 12.0823C43.3909 12.0823 44.3944 11.139 44.3944 9.63373Z" fill="#FFFCEE"/>
<path d="M60.41 9.63369C60.41 12.6242 58.2424 14.9323 55.6131 14.9323C54.2685 14.9323 53.285 14.4705 52.6227 13.7079V14.6512H49.6122V0.601929H52.6227V5.55933C53.2851 4.79673 54.2685 4.3351 55.6131 4.3351C58.2424 4.33516 60.41 6.64319 60.41 9.63369ZM57.3994 9.63369C57.3994 8.12836 56.3959 7.18511 55.011 7.18511C53.6262 7.18511 52.6227 8.1283 52.6227 9.63369C52.6227 11.1389 53.6262 12.0823 55.011 12.0823C56.3959 12.0823 57.3994 11.139 57.3994 9.63369Z" fill="#FFFCEE"/>
<path d="M70.4117 15H67.9059C66.9412 15 66.1882 14.7176 65.647 14.1529C65.1294 13.5647 64.8706 12.7412 64.8706 11.6823V4.05881C64.8706 3.07058 65.1412 2.27058 65.6823 1.65881C66.2235 1.04705 66.9647 0.741166 67.9059 0.741166H70.4117C71.3529 0.741166 72.0823 1.04705 72.6 1.65881C73.1412 2.27058 73.4117 3.07058 73.4117 4.05881V5.01175C73.4117 5.17646 73.3647 5.34116 73.2706 5.50587C73.2 5.67058 73.047 5.75293 72.8117 5.75293H72.5647C72.3294 5.75293 72.1647 5.68234 72.0706 5.54116C71.9764 5.37646 71.9294 5.19999 71.9294 5.01175V4.05881C71.9294 2.88234 71.4235 2.29411 70.4117 2.29411H67.9059C66.8941 2.29411 66.3882 2.88234 66.3882 4.05881V11.647C66.3882 12.847 66.8941 13.447 67.9059 13.447H70.4117C71.4235 13.447 71.9294 12.847 71.9294 11.647V10.6941C71.9294 10.247 72.1412 10.0235 72.5647 10.0235H72.8117C73.0235 10.0235 73.1764 10.1059 73.2706 10.2706C73.3647 10.4117 73.4117 10.5529 73.4117 10.6941V11.6823C73.4117 12.7412 73.1529 13.5647 72.6353 14.1529C72.1176 14.7176 71.3764 15 70.4117 15Z" fill="white"/>
<path d="M83.5547 15H83.3076C82.9547 15 82.7782 14.8 82.7782 14.4V7.41175C82.7782 6.3294 82.3194 5.78822 81.4017 5.78822H80.1311C79.1194 5.78822 78.6135 6.30587 78.6135 7.34116V14.4C78.6135 14.8 78.437 15 78.0841 15H77.837C77.6488 15 77.5076 14.9294 77.4135 14.7882C77.3429 14.647 77.3076 14.5176 77.3076 14.4V1.30587C77.3076 1.1647 77.3429 1.03528 77.4135 0.917637C77.5076 0.77646 77.6488 0.705872 77.837 0.705872H78.0841C78.437 0.705872 78.6135 0.905872 78.6135 1.30587V4.7294C79.1547 4.4941 79.6605 4.37646 80.1311 4.37646H81.4017C82.2252 4.37646 82.8841 4.64705 83.3782 5.18822C83.8723 5.70587 84.1194 6.44705 84.1194 7.41175V14.4C84.1194 14.8 83.9311 15 83.5547 15Z" fill="white"/>
<path d="M93.9573 15H93.7456C93.5103 15 93.3338 14.8706 93.2161 14.6117C92.6985 14.8706 92.1926 15 91.6985 15H90.4279C89.5808 15 88.9103 14.7294 88.4161 14.1882C87.9456 13.647 87.7103 12.9294 87.7103 12.0353V7.58822C87.7103 6.6941 87.9456 5.97646 88.4161 5.43528C88.9103 4.8941 89.5808 4.62352 90.4279 4.62352H93.9573C94.3338 4.62352 94.522 4.81175 94.522 5.18822V14.4C94.522 14.8 94.3338 15 93.9573 15ZM92.5455 5.99999C92.522 5.99999 92.4044 5.99999 92.1926 5.99999C91.9808 5.99999 91.7456 5.99999 91.4867 5.99999C91.2279 5.99999 90.9926 5.99999 90.7808 5.99999C90.5691 5.99999 90.4514 5.99999 90.4279 5.99999C89.4867 5.99999 89.0161 6.5294 89.0161 7.58822V12C89.0161 13.0823 89.4867 13.6235 90.4279 13.6235H91.6632C92.6985 13.6235 93.2161 13.1176 93.2161 12.1059C93.2161 10.5529 93.2161 9.42351 93.2161 8.71763C93.2397 8.01175 93.2514 7.5294 93.2514 7.27057C93.2514 6.98822 93.2279 6.71763 93.1808 6.45881C93.1573 6.19999 92.9456 6.04704 92.5455 5.99999Z" fill="white"/>
<path d="M102.459 15H101.859C101.036 15 100.365 14.7294 99.8473 14.1882C99.3532 13.647 99.1061 12.9294 99.1061 12.0353V5.8941H98.2943C98.1767 5.8941 98.0591 5.84705 97.9414 5.75293C97.8238 5.65881 97.7649 5.51763 97.7649 5.3294V5.08234C97.7649 4.68234 97.9414 4.48234 98.2943 4.48234H99.1061V3.28234C99.1061 3.14116 99.1532 2.99999 99.2473 2.85881C99.3414 2.71764 99.4826 2.64705 99.6708 2.64705H99.9179C100.106 2.64705 100.236 2.7294 100.306 2.89411C100.377 3.03528 100.412 3.16469 100.412 3.28234V4.48234H102.283C102.636 4.48234 102.812 4.68234 102.812 5.08234V5.3294C102.812 5.51763 102.753 5.65881 102.636 5.75293C102.518 5.84705 102.4 5.8941 102.283 5.8941H100.412V12.0353C100.412 13.0706 100.894 13.5882 101.859 13.5882H102.459C102.812 13.5882 102.988 13.7765 102.988 14.1529V14.4353C102.988 14.6235 102.93 14.7647 102.812 14.8588C102.694 14.9529 102.577 15 102.459 15Z" fill="white"/>
</svg>
